<?xml version="1.0" encoding="UTF-8"?>
<svg width="48px" height="48px" viewBox="0 0 48 48" version="1.1" xmlns="http://www.w3.org/2000/svg" xmlns:xlink="http://www.w3.org/1999/xlink">
    <title>app_santander</title>
    <defs>
        <rect id="path-1" x="0" y="0" width="48" height="48" rx="12"></rect>
    </defs>
    <g id="Layout---Final-Home" stroke="none" stroke-width="1" fill="none" fill-rule="evenodd">
        <g id="app_santander">
            <mask id="mask-2" fill="white">
                <use xlink:href="#path-1"></use>
            </mask>
            <use id="Mask" fill="#CC0000" xlink:href="#path-1"></use>
            <path d="M29.5611892,22.8771607 C29.4888108,22.0350313 29.2721441,21.1228393 28.8388108,20.4210647 L24.7945225,13.6139666 C24.5054775,13.1228393 24.2888108,12.5614196 24.1445225,12 L23.9278559,12.2106472 C22.9166667,13.8946764 22.9166667,16 23.9278559,17.6842589 L27.1778559,23.1578706 C28.1888108,24.8421294 28.1888108,26.9474531 27.1778559,28.6314822 L27.0333333,28.912192 C26.8888108,28.3507724 26.6721441,27.7893528 26.3833333,27.2982255 L23.4221441,22.3157411 L21.5445225,19.1578706 C21.2554775,18.6667432 21.0388108,18.1053236 20.8945225,17.543904 L20.75,17.8246138 C19.7388108,19.5088727 19.7388108,21.5436743 20.75,23.2281629 L24,28.7017745 C25.0111892,30.3860334 25.0111892,32.4911273 24,34.1753862 L23.8554775,34.456096 C23.7111892,33.8946764 23.4945225,33.3332568 23.2054775,32.8421294 L19.0888108,26.0350313 C18.5833333,25.1228393 18.2945225,24.1403549 18.3666667,23.087808 C14.0333333,24.2104175 11,26.5263883 11,29.1929019 C11,32.9824844 16.85,36 24,36 C31.15,36 37,32.9824844 37,29.1929019 C36.9278559,26.3157411 33.8945225,23.9299374 29.5611892,22.8771607 Z" id="Path" fill="#FFFFFF" fill-rule="nonzero" mask="url(#mask-2)"></path>
            <rect id="Rectangle" fill="#FDE430" mask="url(#mask-2)" x="34" y="0" width="3" height="9"></rect>
            <rect id="Rectangle-Copy-2" fill="#41A93A" mask="url(#mask-2)" x="37" y="0" width="3" height="9"></rect>
        </g>
    </g>
</svg>