<svg xmlns="http://www.w3.org/2000/svg" width="48" height="48" viewBox="0 0 48 48">
                            <path fill="#C00" d="M37.948 4c3.266 0 5.929 2.588 6.048 5.825l.004.227V28.976c0 3.345-2.712 6.056-6.056 6.056h-9.682L29.811 42h1.199c.552 0 1 .449 1 1 0 .514-.386.936-.884.994L31.01 44h-14c-.552 0-1-.448-1-1 0-.513.386-.936.883-.993L17.01 42h1.198l1.549-6.968h-9.705C6.71 35.032 4 32.322 4 28.98V27l.001-.01L4 26.98V10.058c0-3.27 2.59-5.934 5.829-6.054L10.056 4h27.892zM26.214 35.032h-4.409L20.257 42h7.505l-1.548-6.967zM42 28H6v.98c0 2.238 1.814 4.052 4.052 4.052h27.892c2.24 0 4.056-1.816 4.056-4.056V28zM37.948 6H10.056C7.884 6 6.11 7.708 6.005 9.856L6 10.058V26h36V10.052c0-2.17-1.706-3.941-3.85-4.047L37.948 6zM24.111 7.99c.076.382.214.755.416 1.103l2.633 4.56c.299.517.46 1.09.485 1.666 2.818.736 4.764 2.3 4.764 4.111 0 2.518-3.764 4.56-8.408 4.56-4.646 0-8.41-2.042-8.41-4.56 0-1.81 1.946-3.374 4.764-4.111-.03.682.133 1.371.485 1.983l2.633 4.56c.202.348.34.72.416 1.103l.112-.19c.65-1.13.65-2.52 0-3.649l-2.113-3.66-.108-.202c-.535-1.087-.497-2.377.114-3.435l.11-.19c.077.381.215.755.416 1.102l1.23 2.132 1.93 3.34c.201.348.339.721.416 1.103l.11-.19c.652-1.129.652-2.52 0-3.649L24 11.83c-.652-1.129-.652-2.52.001-3.648z">
                            </path>
                        </svg>