<svg width="328" height="75" viewBox="0 0 328 75" fill="none" xmlns="http://www.w3.org/2000/svg">
<path d="M64.1945 27.7476C62.8223 18.3539 56.7888 10.0752 47.2094 4.43637C34.1676 -3.23366 16.2464 0.527667 6.41057 13.0099C-2.97002 24.9154 -1.95053 42.7481 8.73808 53.6156C10.7065 55.6148 12.7455 57.5947 14.714 59.5107C15.6757 60.4462 16.6375 61.3753 17.5929 62.3172C18.6829 63.3873 19.7793 64.4574 20.8758 65.5211C23.2995 67.8791 25.8001 70.3205 28.211 72.7554C28.7047 73.2488 30.1987 74.761 32.3018 74.761H32.3082C34.4433 74.761 35.9694 73.1975 36.4759 72.6849C36.8798 72.2748 38.3353 70.8331 40.291 68.8979C45.273 63.964 53.6021 55.7109 55.8077 53.34C62.4697 46.1762 65.5282 36.8466 64.2009 27.754L64.1945 27.7476Z" fill="white"/>
<path d="M45.9011 6.64736C33.6801 -0.542091 17.3169 3.32176 8.43007 14.5929C-0.110558 25.4348 0.812754 41.9026 10.5652 51.8217C13.4506 54.7565 16.4449 57.6015 19.388 60.485C22.9402 63.9708 26.5308 67.4181 30.0253 70.9487C31.6732 72.6148 32.9363 72.6212 34.6419 70.8847C36.0781 69.4173 37.54 67.9692 39.0019 66.5274C39.6495 65.8867 39.6495 64.855 39.0019 64.2206L28.6147 54.0388C28.4352 53.8658 28.262 53.6928 28.0825 53.5134L27.1848 52.6291C26.5949 52.0396 26.2679 51.7064 25.6909 51.1105C23.1902 48.5025 20.4139 46.0484 18.4198 43.1008C14.4637 37.2634 15.5601 29.273 20.5742 24.2686C24.1392 20.7123 27.5631 17.3995 31.1923 13.8496C31.5642 13.4844 32.1669 13.4716 32.5516 13.8304C34.5649 15.6951 40.4639 21.6414 43.3877 24.5441C49.6841 30.7852 49.7098 40.4865 43.439 46.7148C41.073 49.06 38.8865 51.2002 36.4308 53.5967C35.8794 54.1349 35.8729 55.0192 36.4308 55.5638L42.2528 61.0745C42.9068 61.696 43.9455 61.6832 44.5867 61.0552C47.7606 57.9475 50.9088 54.8205 53.9224 51.5718C65.6113 38.9999 65.7652 18.3222 45.9075 6.62814L45.9011 6.64736Z" fill="url(#paint0_linear_15085_10461)"/>
<path d="M32.3199 39.756C34.5827 39.756 36.417 37.9572 36.417 35.7383C36.417 33.5195 34.5827 31.7207 32.3199 31.7207C30.057 31.7207 28.2227 33.5195 28.2227 35.7383C28.2227 37.9572 30.057 39.756 32.3199 39.756Z" fill="url(#paint1_linear_15085_10461)"/>
<path d="M115.696 12.094V42.9215C115.696 45.3692 114.209 47.3492 112.381 47.3492H107.027V16.5281C107.027 14.0804 108.515 12.1004 110.342 12.1004H115.696V12.094Z" fill="#014A78"/>
<path d="M81.5908 12.1195C77.9296 12.1195 74.9609 15.0286 74.9609 18.6169V47.3555H80.27C82.1038 47.3555 83.5849 45.901 83.5849 44.1068V35.4564C83.5849 34.0275 84.7647 32.8741 86.2202 32.8741H95.2674C96.8383 32.8741 98.1143 31.6246 98.1143 30.0867V25.864H87.5282C85.1045 25.864 84.1556 26.1716 83.5785 28.126V21.0839C83.5785 20.0074 84.4698 19.136 85.5662 19.136H101.121C102.955 19.136 104.436 17.6814 104.436 15.8872V12.1259H81.578L81.5908 12.1195Z" fill="#014A78"/>
<path d="M122.256 12.1195C120.423 12.1195 118.941 13.5741 118.941 15.3682V19.1295H127.149C128.527 19.1295 129.643 20.2253 129.643 21.5709V23.2433L129.457 47.3555H135.279C136.85 47.3555 138.126 46.106 138.126 44.5682L138.325 21.5581C138.337 20.2124 139.447 19.1295 140.819 19.1295H145.685C147.519 19.1295 149 17.675 149 15.8808V12.1195H122.263H122.256Z" fill="#014A78"/>
<path d="M74.9531 56.3263C74.9531 56.243 75.0237 56.1661 75.1134 56.1661H78.5438C78.64 56.1661 78.7041 56.243 78.7041 56.3263V56.7941C78.7041 56.8774 78.6335 56.9543 78.5438 56.9543H75.838V58.6651H78.127C78.2104 58.6651 78.2873 58.742 78.2873 58.8253V59.2931C78.2873 59.3828 78.2104 59.4533 78.127 59.4533H75.838V61.2603H78.5438C78.64 61.2603 78.7041 61.3372 78.7041 61.4205V61.8818C78.7041 61.9651 78.6335 62.042 78.5438 62.042H75.1134C75.0172 62.042 74.9531 61.9651 74.9531 61.8818V56.3263Z" fill="#959797"/>
<path d="M85.3796 56.0829C86.2452 56.0829 86.8736 56.3712 87.4506 56.8646C87.5276 56.9351 87.5276 57.0312 87.457 57.1017L87.0787 57.4798C87.021 57.5567 86.9441 57.5567 86.8671 57.4798C86.4632 57.1338 85.9182 56.9159 85.386 56.9159C84.1613 56.9159 83.238 57.9219 83.238 59.1009C83.238 60.2799 84.1742 61.2731 85.3988 61.2731C86.0272 61.2731 86.4632 61.0296 86.8736 60.7221C86.9505 60.6644 87.0274 60.6708 87.0787 60.7157L87.4699 61.0937C87.5404 61.1514 87.5212 61.2603 87.4635 61.318C86.88 61.869 86.1426 62.1318 85.3796 62.1318C83.6676 62.1318 82.2891 60.799 82.2891 59.1201C82.2891 57.4413 83.6676 56.0893 85.3796 56.0893V56.0829Z" fill="#959797"/>
<path d="M94.0426 56.0829C95.7545 56.0829 97.1267 57.4349 97.1267 59.1137C97.1267 60.7926 95.7545 62.1254 94.0426 62.1254C92.3306 62.1254 90.9648 60.7926 90.9648 59.1137C90.9648 57.4349 92.3242 56.0829 94.0426 56.0829ZM94.0426 61.2859C95.2672 61.2859 96.2675 60.312 96.2675 59.1137C96.2675 57.9155 95.2672 56.9223 94.0426 56.9223C92.8179 56.9223 91.824 57.9219 91.824 59.1137C91.824 60.3056 92.8243 61.2859 94.0426 61.2859Z" fill="#959797"/>
<path d="M101.094 56.2367C101.094 56.1534 101.171 56.0829 101.254 56.0829H101.466L105.185 60.2992H105.191V56.3264C105.191 56.2431 105.261 56.1662 105.351 56.1662H105.903C105.986 56.1662 106.063 56.2431 106.063 56.3264V61.978C106.063 62.0613 105.986 62.1318 105.903 62.1318H105.678L101.959 57.8002H101.953V61.8883C101.953 61.9716 101.882 62.0485 101.793 62.0485H101.254C101.171 62.0485 101.094 61.9716 101.094 61.8883V56.2367Z" fill="#959797"/>
<path d="M113.117 56.0829C114.829 56.0829 116.201 57.4349 116.201 59.1137C116.201 60.7926 114.829 62.1254 113.117 62.1254C111.405 62.1254 110.039 60.7926 110.039 59.1137C110.039 57.4349 111.398 56.0829 113.117 56.0829ZM113.117 61.2859C114.341 61.2859 115.342 60.312 115.342 59.1137C115.342 57.9155 114.341 56.9223 113.117 56.9223C111.892 56.9223 110.898 57.9219 110.898 59.1137C110.898 60.3056 111.899 61.2859 113.117 61.2859Z" fill="#959797"/>
<path d="M120.824 56.211C120.844 56.147 120.908 56.0829 120.978 56.0829H121.113C121.164 56.0829 121.241 56.1277 121.26 56.1726L123.049 60.4658H123.081L124.864 56.1726C124.883 56.1213 124.947 56.0829 125.011 56.0829H125.146C125.217 56.0829 125.281 56.1406 125.3 56.211L126.351 61.8562C126.377 61.9716 126.319 62.0485 126.198 62.0485H125.64C125.563 62.0485 125.492 61.9908 125.479 61.9331L124.845 58.1782H124.819L123.274 62.0421C123.255 62.0933 123.203 62.1318 123.126 62.1318H122.972C122.902 62.1318 122.844 62.0869 122.825 62.0421L121.273 58.1782H121.241L120.626 61.9331C120.619 61.9908 120.542 62.0485 120.472 62.0485H119.914C119.792 62.0485 119.734 61.9716 119.754 61.8562L120.818 56.211H120.824Z" fill="#959797"/>
<path d="M130.363 56.3263C130.363 56.243 130.44 56.1661 130.524 56.1661H131.088C131.171 56.1661 131.248 56.243 131.248 56.3263V61.8818C131.248 61.9651 131.171 62.042 131.088 62.042H130.524C130.44 62.042 130.363 61.9651 130.363 61.8818V56.3263Z" fill="#959797"/>
<path d="M134.855 61.8242L137.484 56.1726C137.51 56.1213 137.587 56.0829 137.632 56.0829H137.715C137.76 56.0829 137.837 56.1277 137.862 56.1726L140.479 61.8242C140.53 61.9331 140.459 62.0421 140.331 62.0421H139.792C139.69 62.0421 139.632 61.9908 139.594 61.9139L139.061 60.7605H136.259C136.086 61.145 135.907 61.523 135.734 61.9139C135.708 61.9716 135.638 62.0421 135.535 62.0421H134.996C134.868 62.0421 134.798 61.9331 134.849 61.8242H134.855ZM138.734 60.0493L137.683 57.7489H137.638L136.593 60.0493H138.734Z" fill="#959797"/>
<path d="M74.9531 66.8413C74.9531 66.758 75.0237 66.6812 75.107 66.6812H77.0755C78.7297 66.6812 80.0826 68.0011 80.0826 69.6095C80.0826 71.2178 78.7297 72.557 77.0755 72.557H75.107C75.0237 72.557 74.9531 72.4801 74.9531 72.3968V66.8413ZM76.96 71.7625C78.2168 71.7625 79.1337 70.859 79.1337 69.6159C79.1337 68.3728 78.2168 67.4821 76.96 67.4821H75.8316V71.7625H76.96Z" fill="#959797"/>
<path d="M84.0625 66.8413C84.0625 66.758 84.133 66.6812 84.2228 66.6812H87.6532C87.7493 66.6812 87.8135 66.758 87.8135 66.8413V67.3091C87.8135 67.3924 87.7429 67.4693 87.6532 67.4693H84.9473V69.1802H87.2364C87.3197 69.1802 87.3967 69.2571 87.3967 69.3404V69.8081C87.3967 69.8978 87.3197 69.9683 87.2364 69.9683H84.9473V71.7753H87.6532C87.7493 71.7753 87.8135 71.8522 87.8135 71.9355V72.3968C87.8135 72.4801 87.7429 72.557 87.6532 72.557H84.2228C84.1266 72.557 84.0625 72.4801 84.0625 72.3968V66.8413Z" fill="#959797"/>
<path d="M96.4844 66.8413C96.4844 66.758 96.5549 66.6812 96.6447 66.6812H100.075C100.171 66.6812 100.235 66.758 100.235 66.8413V67.3091C100.235 67.3924 100.165 67.4693 100.075 67.4693H97.3692V69.1802H99.6583C99.7416 69.1802 99.8186 69.2571 99.8186 69.3404V69.8081C99.8186 69.8978 99.7416 69.9683 99.6583 69.9683H97.3692V71.7753H100.075C100.171 71.7753 100.235 71.8522 100.235 71.9355V72.3968C100.235 72.4801 100.165 72.557 100.075 72.557H96.6447C96.5485 72.557 96.4844 72.4801 96.4844 72.3968V66.8413Z" fill="#959797"/>
<path d="M104.277 66.7452C104.277 66.6619 104.354 66.5914 104.438 66.5914H104.649L108.368 70.8077H108.375V66.8349C108.375 66.7516 108.445 66.6747 108.535 66.6747H109.086C109.17 66.6747 109.247 66.7516 109.247 66.8349V72.4865C109.247 72.5698 109.17 72.6403 109.086 72.6403H108.862L105.143 68.3087H105.137V72.3968C105.137 72.4801 105.066 72.557 104.976 72.557H104.438C104.354 72.557 104.277 72.4801 104.277 72.3968V66.7452Z" fill="#959797"/>
<path d="M113.656 66.8413C113.656 66.758 113.727 66.6812 113.817 66.6812H117.247C117.343 66.6812 117.407 66.758 117.407 66.8413V67.3091C117.407 67.3924 117.337 67.4693 117.247 67.4693H114.541V69.1802H116.83C116.913 69.1802 116.99 69.2571 116.99 69.3404V69.8081C116.99 69.8978 116.913 69.9683 116.83 69.9683H114.541V71.7753H117.247C117.343 71.7753 117.407 71.8522 117.407 71.9355V72.3968C117.407 72.4801 117.337 72.557 117.247 72.557H113.817C113.72 72.557 113.656 72.4801 113.656 72.3968V66.8413Z" fill="#959797"/>
<path d="M121.449 66.8413C121.449 66.758 121.52 66.6812 121.61 66.6812H123.943C124.969 66.6812 125.809 67.4757 125.809 68.4753C125.809 69.2506 125.284 69.885 124.54 70.1798L125.713 72.3135C125.771 72.4225 125.713 72.557 125.566 72.557H124.899C124.828 72.557 124.777 72.5122 124.764 72.4801L123.623 70.2567H122.328V72.3968C122.328 72.4801 122.251 72.557 122.167 72.557H121.61C121.513 72.557 121.449 72.4801 121.449 72.3968V66.8413ZM123.879 69.5326C124.437 69.5326 124.924 69.0712 124.924 68.4945C124.924 67.9499 124.437 67.4949 123.879 67.4949H122.353V69.5326H123.879Z" fill="#959797"/>
<path d="M132.536 66.5979C133.357 66.5979 134.036 66.8927 134.62 67.3796C134.69 67.4501 134.697 67.5462 134.626 67.6167C134.498 67.7513 134.37 67.8794 134.241 68.014C134.171 68.0909 134.107 68.0845 134.017 68.0076C133.613 67.6616 133.081 67.4373 132.561 67.4373C131.343 67.4373 130.414 68.4433 130.414 69.6223C130.414 70.8014 131.35 71.7946 132.561 71.7946C133.273 71.7946 133.761 71.5447 133.844 71.5062V70.5643H133.004C132.908 70.5643 132.844 70.4938 132.844 70.4105V69.9235C132.844 69.8338 132.914 69.7633 133.004 69.7633H134.562C134.645 69.7633 134.716 69.8402 134.716 69.9235C134.716 70.5963 134.722 71.2819 134.722 71.9547C134.722 71.9996 134.69 72.0637 134.652 72.0893C134.652 72.0893 133.767 72.6404 132.529 72.6404C130.824 72.6404 129.445 71.3076 129.445 69.6288C129.445 67.9499 130.824 66.5979 132.529 66.5979H132.536Z" fill="#959797"/>
<path d="M138.824 66.8413C138.824 66.758 138.901 66.6812 138.985 66.6812H139.549C139.632 66.6812 139.709 66.758 139.709 66.8413V72.3968C139.709 72.4801 139.632 72.557 139.549 72.557H138.985C138.901 72.557 138.824 72.4801 138.824 72.3968V66.8413Z" fill="#959797"/>
<path d="M143.312 72.3392L145.941 66.6876C145.967 66.6363 146.044 66.5979 146.089 66.5979H146.172C146.217 66.5979 146.294 66.6428 146.32 66.6876L148.936 72.3392C148.987 72.4481 148.916 72.5571 148.788 72.5571H148.249C148.147 72.5571 148.089 72.5058 148.051 72.4289L147.519 71.2755H144.717C144.543 71.66 144.364 72.0381 144.191 72.4289C144.165 72.4866 144.095 72.5571 143.992 72.5571H143.453C143.325 72.5571 143.255 72.4481 143.306 72.3392H143.312ZM147.192 70.5579L146.14 68.2575H146.095L145.05 70.5579H147.192Z" fill="#959797"/>
<path d="M210.808 47.983C210.774 47.1322 210.532 46.293 210.095 45.5342L206.207 38.8317C205.908 38.3258 205.7 37.774 205.585 37.2107L205.424 37.4866C204.458 39.1421 204.458 41.1885 205.424 42.844L208.542 48.2014C209.508 49.8569 209.508 51.9033 208.542 53.5588L208.381 53.8347C208.266 53.2714 208.059 52.731 207.76 52.2137L204.907 47.3047L203.089 44.1776C202.79 43.6718 202.583 43.1199 202.468 42.5566L202.307 42.8325C201.352 44.488 201.34 46.5229 202.307 48.1784L205.424 53.5588C206.391 55.2143 206.391 57.2607 205.424 58.9162L205.263 59.1921C205.148 58.6288 204.941 58.0884 204.642 57.5711L200.754 50.8686C200.236 49.9719 199.994 48.9602 200.04 47.96C195.876 49.0406 193 51.34 193 53.9957C193 57.6975 198.568 60.6982 205.424 60.6982C212.281 60.6982 217.849 57.6975 217.849 53.9957C217.849 51.34 214.973 49.0406 210.808 47.96V47.983ZM222.542 59.422C222.588 58.4678 222.726 57.824 222.991 57.0767C224.303 57.6746 225.982 57.985 227.259 57.985C229.433 57.985 230.641 57.2837 230.641 55.9156C230.641 54.5475 229.755 53.9382 227.558 52.9955L226.373 52.4896C224.176 51.5354 222.68 50.3053 222.68 47.845C222.68 45.2008 224.521 43.5108 228.306 43.5108C229.824 43.5108 231.251 43.7177 232.574 44.1891C232.505 45.1203 232.344 45.8331 232.102 46.5114C230.837 46.0515 229.353 45.8331 228.271 45.8331C226.235 45.8331 225.303 46.6264 225.303 47.8565C225.303 49.0866 226.212 49.7534 227.846 50.4547L229.111 50.9836C232.079 52.2367 233.31 53.5588 233.31 55.8121C233.31 58.4793 231.274 60.3188 227.305 60.3188C225.395 60.3188 223.831 60.0428 222.519 59.4335L222.542 59.422ZM245.861 48.3394V59.9394H243.503L243.365 58.5483C242.709 59.5715 241.708 60.2153 240.075 60.2153C236.991 60.2153 234.944 57.985 234.944 54.0876C234.944 50.1903 237.141 47.6841 241.455 47.6841C243.135 47.6841 244.515 47.868 245.873 48.3279L245.861 48.3394ZM243.296 57.2952V50.0064C242.755 49.9144 242.18 49.8684 241.455 49.8684C238.798 49.8684 237.555 51.4894 237.555 54.0876C237.555 56.4559 238.51 58.1229 240.799 58.1229C241.8 58.1229 242.617 57.801 243.296 57.2837V57.2952ZM259.01 52.1447V59.9394H256.445V52.5816C256.445 50.7536 255.835 49.8684 253.27 49.8684C252.66 49.8684 251.935 49.9374 251.233 50.0523V59.9394H248.668V48.3394C250.302 47.9485 252.096 47.6955 253.339 47.6955C257.63 47.6955 259.01 49.3396 259.01 52.1447ZM266.131 58.031C266.879 58.031 267.581 57.893 268.144 57.6861C268.075 58.3874 267.983 59.1691 267.845 59.8474C267.144 60.1233 266.396 60.2153 265.671 60.2153C263.175 60.2153 261.587 59.0771 261.587 56.249V44.0626C262.381 43.8097 263.359 43.6948 264.153 43.6948V48.0749H268.213C268.167 48.8682 268.098 49.581 267.983 50.2593H264.153V55.9386C264.153 57.4446 264.9 58.031 266.131 58.031ZM279.902 48.3394V59.9394H277.543L277.405 58.5483C276.749 59.5715 275.749 60.2153 274.115 60.2153C271.032 60.2153 268.984 57.985 268.984 54.0876C268.984 50.1903 271.182 47.6841 275.496 47.6841C277.175 47.6841 278.556 47.868 279.913 48.3279L279.902 48.3394ZM277.336 57.2952V50.0064C276.795 49.9144 276.22 49.8684 275.496 49.8684C272.838 49.8684 271.596 51.4894 271.596 54.0876C271.596 56.4559 272.55 58.1229 274.84 58.1229C275.841 58.1229 276.657 57.801 277.336 57.2837V57.2952ZM293.051 52.1447V59.9394H290.485V52.5816C290.485 50.7536 289.876 49.8684 287.31 49.8684C286.7 49.8684 285.976 49.9374 285.274 50.0523V59.9394H282.709V48.3394C284.342 47.9485 286.137 47.6955 287.379 47.6955C291.67 47.6955 293.051 49.3396 293.051 52.1447ZM306.073 43.6948V59.9394H303.715L303.577 58.4563C302.921 59.5485 301.92 60.2153 300.241 60.2153C297.158 60.2153 295.11 57.985 295.11 54.0876C295.11 50.1903 297.307 47.6841 301.621 47.6841C302.3 47.6841 302.933 47.753 303.531 47.868V44.0396C304.325 43.7637 305.233 43.6948 306.073 43.6948ZM303.531 57.2492V50.0983C302.852 49.9604 302.15 49.8684 301.472 49.8684C298.929 49.8684 297.71 51.4434 297.71 54.0876C297.71 56.4559 298.665 58.1229 300.954 58.1229C301.978 58.1229 302.818 57.778 303.519 57.2377L303.531 57.2492ZM318.981 54.9729H310.79C311.112 57.0423 312.331 58.031 314.621 58.031C316.024 58.031 317.451 57.732 318.728 57.1457C318.636 57.824 318.498 58.6978 318.337 59.468C317.175 59.9969 315.932 60.2153 314.552 60.2153C310.261 60.2153 308.179 57.847 308.179 53.8807C308.179 50.4202 309.789 47.6841 313.873 47.6841C317.543 47.6841 319.13 50.0753 319.13 52.9955C319.13 53.7197 319.084 54.2946 318.992 54.9729H318.981ZM310.744 52.8345H316.53C316.53 50.9376 315.507 49.8224 313.723 49.8224C311.94 49.8224 310.951 50.8686 310.732 52.8345H310.744ZM327.977 47.776C327.977 48.5463 327.885 49.466 327.747 49.9604C327.137 49.8914 326.527 49.8684 325.814 49.8684C325.182 49.8684 324.549 49.9144 323.928 50.0064V59.9394H321.362V48.3394C322.455 47.9715 324.307 47.6955 325.757 47.6955C326.55 47.6955 327.436 47.7185 328 47.7875L327.977 47.776Z" fill="#E41513"/>
<path fill-rule="evenodd" clip-rule="evenodd" d="M170 65L170 18L171 18L171 65L170 65Z" fill="#9EABB5"/>
<path d="M200.423 19.8182H202.267V26.4702C202.267 27.1993 202.095 27.8407 201.75 28.3942C201.409 28.9477 200.928 29.3802 200.308 29.6918C199.688 30 198.964 30.1541 198.136 30.1541C197.304 30.1541 196.578 30 195.958 29.6918C195.338 29.3802 194.858 28.9477 194.516 28.3942C194.175 27.8407 194.004 27.1993 194.004 26.4702V19.8182H195.849V26.3161C195.849 26.7403 195.942 27.1181 196.127 27.4496C196.316 27.781 196.581 28.0412 196.923 28.2301C197.264 28.4157 197.668 28.5085 198.136 28.5085C198.603 28.5085 199.007 28.4157 199.349 28.2301C199.693 28.0412 199.959 27.781 200.144 27.4496C200.33 27.1181 200.423 26.7403 200.423 26.3161V19.8182ZM204.192 30V22.3636H205.912V23.6612H206.002C206.161 23.2237 206.425 22.8823 206.792 22.6371C207.16 22.3885 207.599 22.2642 208.11 22.2642C208.627 22.2642 209.063 22.3902 209.417 22.642C209.775 22.8906 210.027 23.2304 210.173 23.6612H210.253C210.422 23.237 210.707 22.8989 211.108 22.647C211.512 22.3918 211.991 22.2642 212.545 22.2642C213.247 22.2642 213.821 22.4863 214.265 22.9304C214.709 23.3745 214.931 24.0225 214.931 24.8743V30H213.126V25.1527C213.126 24.6787 213 24.3324 212.748 24.1136C212.497 23.8916 212.188 23.7805 211.824 23.7805C211.39 23.7805 211.05 23.9164 210.805 24.1882C210.563 24.4567 210.442 24.8063 210.442 25.2372V30H208.677V25.0781C208.677 24.6837 208.557 24.3688 208.319 24.1335C208.083 23.8982 207.775 23.7805 207.394 23.7805C207.135 23.7805 206.9 23.8468 206.688 23.9794C206.476 24.1087 206.307 24.2926 206.181 24.5312C206.055 24.7666 205.992 25.0417 205.992 25.3565V30H204.192ZM218.954 30.1541C218.47 30.1541 218.034 30.0679 217.647 29.8956C217.262 29.7199 216.957 29.4614 216.732 29.12C216.51 28.7786 216.399 28.3577 216.399 27.8572C216.399 27.4264 216.478 27.0701 216.637 26.7884C216.797 26.5066 217.014 26.2812 217.289 26.1122C217.564 25.9432 217.874 25.8156 218.218 25.7294C218.566 25.6399 218.926 25.5753 219.297 25.5355C219.745 25.4891 220.108 25.4477 220.386 25.4112C220.664 25.3714 220.867 25.3118 220.993 25.2322C221.122 25.1494 221.186 25.0218 221.186 24.8494V24.8196C221.186 24.4451 221.075 24.1551 220.853 23.9496C220.631 23.7441 220.311 23.6413 219.894 23.6413C219.453 23.6413 219.103 23.7375 218.845 23.9297C218.59 24.1219 218.417 24.349 218.328 24.6108L216.647 24.3722C216.78 23.9081 216.999 23.5204 217.304 23.2088C217.609 22.8939 217.981 22.6586 218.422 22.5028C218.863 22.3438 219.35 22.2642 219.884 22.2642C220.252 22.2642 220.618 22.3073 220.983 22.3935C221.347 22.4796 221.68 22.6222 221.982 22.821C222.283 23.0166 222.525 23.2834 222.708 23.6214C222.893 23.9595 222.986 24.3821 222.986 24.8892V30H221.256V28.951H221.196C221.087 29.1631 220.933 29.362 220.734 29.5476C220.538 29.7299 220.292 29.8774 219.993 29.9901C219.698 30.0994 219.352 30.1541 218.954 30.1541ZM219.422 28.8317C219.783 28.8317 220.096 28.7604 220.361 28.6179C220.626 28.4721 220.83 28.2798 220.973 28.0412C221.118 27.8026 221.191 27.5424 221.191 27.2607V26.3608C221.135 26.4072 221.039 26.4503 220.903 26.4901C220.77 26.5298 220.621 26.5646 220.456 26.5945C220.29 26.6243 220.126 26.6508 219.963 26.674C219.801 26.6972 219.66 26.7171 219.541 26.7337C219.272 26.7701 219.032 26.8298 218.82 26.9126C218.608 26.9955 218.44 27.1115 218.318 27.2607C218.195 27.4065 218.134 27.5954 218.134 27.8274C218.134 28.1589 218.255 28.4091 218.497 28.5781C218.739 28.7472 219.047 28.8317 219.422 28.8317ZM231.649 30.1491C230.884 30.1491 230.222 29.9901 229.665 29.6719C229.112 29.3504 228.686 28.8963 228.388 28.3097C228.089 27.7197 227.94 27.0253 227.94 26.2266C227.94 25.4411 228.089 24.7517 228.388 24.1584C228.689 23.5618 229.11 23.0978 229.651 22.7663C230.191 22.4316 230.826 22.2642 231.555 22.2642C232.025 22.2642 232.469 22.3404 232.887 22.4929C233.308 22.642 233.679 22.8741 234.001 23.1889C234.326 23.5038 234.581 23.9048 234.766 24.392C234.952 24.8759 235.045 25.4527 235.045 26.1222V26.674H228.786V25.4609H233.32C233.316 25.1162 233.242 24.8097 233.096 24.5412C232.95 24.2694 232.746 24.0556 232.484 23.8999C232.226 23.7441 231.924 23.6662 231.58 23.6662C231.212 23.6662 230.888 23.7557 230.61 23.9347C230.332 24.1103 230.115 24.3423 229.959 24.6307C229.806 24.9157 229.728 25.2289 229.725 25.5703V26.6293C229.725 27.0734 229.806 27.4545 229.969 27.7727C230.131 28.0876 230.358 28.3295 230.65 28.4986C230.942 28.6643 231.283 28.7472 231.674 28.7472C231.936 28.7472 232.173 28.7107 232.385 28.6378C232.597 28.5616 232.781 28.4505 232.937 28.3047C233.093 28.1589 233.21 27.9782 233.29 27.7628L234.97 27.9517C234.864 28.3958 234.662 28.7836 234.364 29.1151C234.069 29.4432 233.691 29.6984 233.23 29.8807C232.769 30.0597 232.242 30.1491 231.649 30.1491ZM236.567 30V22.3636H238.287V23.6612H238.377C238.536 23.2237 238.8 22.8823 239.167 22.6371C239.535 22.3885 239.974 22.2642 240.485 22.2642C241.002 22.2642 241.438 22.3902 241.792 22.642C242.15 22.8906 242.402 23.2304 242.548 23.6612H242.628C242.797 23.237 243.082 22.8989 243.483 22.647C243.887 22.3918 244.366 22.2642 244.92 22.2642C245.622 22.2642 246.196 22.4863 246.64 22.9304C247.084 23.3745 247.306 24.0225 247.306 24.8743V30H245.501V25.1527C245.501 24.6787 245.375 24.3324 245.123 24.1136C244.872 23.8916 244.563 23.7805 244.199 23.7805C243.765 23.7805 243.425 23.9164 243.18 24.1882C242.938 24.4567 242.817 24.8063 242.817 25.2372V30H241.052V25.0781C241.052 24.6837 240.932 24.3688 240.694 24.1335C240.458 23.8982 240.15 23.7805 239.769 23.7805C239.51 23.7805 239.275 23.8468 239.063 23.9794C238.851 24.1087 238.682 24.2926 238.556 24.5312C238.43 24.7666 238.367 25.0417 238.367 25.3565V30H236.567ZM249.132 32.8636V22.3636H250.902V23.6264H251.006C251.099 23.4408 251.23 23.2436 251.399 23.0348C251.568 22.8227 251.797 22.642 252.085 22.4929C252.373 22.3404 252.741 22.2642 253.189 22.2642C253.779 22.2642 254.31 22.415 254.784 22.7166C255.262 23.0149 255.64 23.4574 255.918 24.044C256.2 24.6274 256.341 25.3433 256.341 26.1918C256.341 27.0303 256.203 27.7429 255.928 28.3295C255.653 28.9162 255.278 29.3636 254.804 29.6719C254.33 29.9801 253.793 30.1342 253.194 30.1342C252.756 30.1342 252.393 30.0613 252.105 29.9155C251.816 29.7696 251.584 29.594 251.409 29.3885C251.236 29.1797 251.102 28.9825 251.006 28.7969H250.931V32.8636H249.132ZM250.897 26.1818C250.897 26.6757 250.966 27.1082 251.105 27.4794C251.248 27.8506 251.452 28.1406 251.717 28.3494C251.985 28.5549 252.31 28.6577 252.691 28.6577C253.089 28.6577 253.422 28.5516 253.691 28.3395C253.959 28.1241 254.161 27.8307 254.297 27.4595C254.436 27.085 254.506 26.6591 254.506 26.1818C254.506 25.7079 254.438 25.2869 254.302 24.919C254.166 24.5511 253.964 24.2628 253.696 24.054C253.427 23.8452 253.092 23.7408 252.691 23.7408C252.307 23.7408 251.98 23.8419 251.712 24.044C251.444 24.2462 251.24 24.5296 251.1 24.8942C250.965 25.2588 250.897 25.688 250.897 26.1818ZM257.882 30V22.3636H259.627V23.6364H259.706C259.846 23.1955 260.084 22.8558 260.422 22.6172C260.764 22.3752 261.153 22.2543 261.591 22.2543C261.69 22.2543 261.801 22.2592 261.924 22.2692C262.05 22.2758 262.154 22.2874 262.237 22.304V23.9595C262.161 23.933 262.04 23.9098 261.874 23.8899C261.712 23.8667 261.554 23.8551 261.402 23.8551C261.074 23.8551 260.779 23.9264 260.517 24.0689C260.258 24.2081 260.054 24.402 259.905 24.6506C259.756 24.8991 259.681 25.1858 259.681 25.5107V30H257.882ZM266.499 30.1491C265.733 30.1491 265.072 29.9901 264.515 29.6719C263.962 29.3504 263.536 28.8963 263.237 28.3097C262.939 27.7197 262.79 27.0253 262.79 26.2266C262.79 25.4411 262.939 24.7517 263.237 24.1584C263.539 23.5618 263.96 23.0978 264.5 22.7663C265.04 22.4316 265.675 22.2642 266.404 22.2642C266.875 22.2642 267.319 22.3404 267.737 22.4929C268.158 22.642 268.529 22.8741 268.85 23.1889C269.175 23.5038 269.43 23.9048 269.616 24.392C269.802 24.8759 269.894 25.4527 269.894 26.1222V26.674H263.635V25.4609H268.169C268.166 25.1162 268.091 24.8097 267.945 24.5412C267.8 24.2694 267.596 24.0556 267.334 23.8999C267.075 23.7441 266.774 23.6662 266.429 23.6662C266.061 23.6662 265.738 23.7557 265.46 23.9347C265.181 24.1103 264.964 24.3423 264.808 24.6307C264.656 24.9157 264.578 25.2289 264.575 25.5703V26.6293C264.575 27.0734 264.656 27.4545 264.818 27.7727C264.981 28.0876 265.208 28.3295 265.499 28.4986C265.791 28.6643 266.133 28.7472 266.524 28.7472C266.785 28.7472 267.022 28.7107 267.235 28.6378C267.447 28.5616 267.631 28.4505 267.786 28.3047C267.942 28.1589 268.06 27.9782 268.139 27.7628L269.82 27.9517C269.714 28.3958 269.512 28.7836 269.213 29.1151C268.918 29.4432 268.54 29.6984 268.08 29.8807C267.619 30.0597 267.092 30.1491 266.499 30.1491ZM277.452 24.3821L275.812 24.5611C275.765 24.3954 275.684 24.2396 275.568 24.0938C275.455 23.9479 275.303 23.8303 275.111 23.7408C274.919 23.6513 274.683 23.6065 274.405 23.6065C274.03 23.6065 273.715 23.6877 273.46 23.8501C273.208 24.0125 273.084 24.223 273.087 24.4815C273.084 24.7036 273.165 24.8842 273.331 25.0234C273.5 25.1626 273.778 25.277 274.166 25.3665L275.469 25.6449C276.191 25.8007 276.728 26.0476 277.08 26.3857C277.434 26.7237 277.613 27.1662 277.616 27.7131C277.613 28.1937 277.472 28.6179 277.194 28.9858C276.919 29.3504 276.536 29.6354 276.045 29.8409C275.555 30.0464 274.991 30.1491 274.355 30.1491C273.42 30.1491 272.668 29.9536 272.098 29.5625C271.528 29.1681 271.188 28.6196 271.079 27.9169L272.834 27.7479C272.913 28.0926 273.082 28.3527 273.341 28.5284C273.599 28.7041 273.936 28.7919 274.35 28.7919C274.778 28.7919 275.121 28.7041 275.379 28.5284C275.641 28.3527 275.772 28.1357 275.772 27.8771C275.772 27.6584 275.688 27.4777 275.518 27.3352C275.353 27.1927 275.094 27.0833 274.743 27.0071L273.44 26.7337C272.708 26.5812 272.166 26.3243 271.815 25.9631C271.463 25.5985 271.289 25.1378 271.293 24.581C271.289 24.1103 271.417 23.7027 271.675 23.358C271.937 23.0099 272.3 22.7415 272.764 22.5526C273.232 22.3603 273.77 22.2642 274.38 22.2642C275.275 22.2642 275.979 22.4548 276.493 22.8359C277.01 23.2171 277.33 23.7325 277.452 24.3821ZM281.298 30.1541C280.814 30.1541 280.378 30.0679 279.99 29.8956C279.606 29.7199 279.301 29.4614 279.076 29.12C278.854 28.7786 278.743 28.3577 278.743 27.8572C278.743 27.4264 278.822 27.0701 278.981 26.7884C279.14 26.5066 279.357 26.2812 279.632 26.1122C279.908 25.9432 280.217 25.8156 280.562 25.7294C280.91 25.6399 281.27 25.5753 281.641 25.5355C282.088 25.4891 282.451 25.4477 282.73 25.4112C283.008 25.3714 283.21 25.3118 283.336 25.2322C283.466 25.1494 283.53 25.0218 283.53 24.8494V24.8196C283.53 24.4451 283.419 24.1551 283.197 23.9496C282.975 23.7441 282.655 23.6413 282.238 23.6413C281.797 23.6413 281.447 23.7375 281.189 23.9297C280.933 24.1219 280.761 24.349 280.672 24.6108L278.991 24.3722C279.124 23.9081 279.342 23.5204 279.647 23.2088C279.952 22.8939 280.325 22.6586 280.766 22.5028C281.207 22.3438 281.694 22.2642 282.228 22.2642C282.596 22.2642 282.962 22.3073 283.326 22.3935C283.691 22.4796 284.024 22.6222 284.326 22.821C284.627 23.0166 284.869 23.2834 285.051 23.6214C285.237 23.9595 285.33 24.3821 285.33 24.8892V30H283.6V28.951H283.54C283.431 29.1631 283.277 29.362 283.078 29.5476C282.882 29.7299 282.635 29.8774 282.337 29.9901C282.042 30.0994 281.696 30.1541 281.298 30.1541ZM281.765 28.8317C282.127 28.8317 282.44 28.7604 282.705 28.6179C282.97 28.4721 283.174 28.2798 283.316 28.0412C283.462 27.8026 283.535 27.5424 283.535 27.2607V26.3608C283.479 26.4072 283.383 26.4503 283.247 26.4901C283.114 26.5298 282.965 26.5646 282.799 26.5945C282.634 26.6243 282.47 26.6508 282.307 26.674C282.145 26.6972 282.004 26.7171 281.885 26.7337C281.616 26.7701 281.376 26.8298 281.164 26.9126C280.952 26.9955 280.784 27.1115 280.662 27.2607C280.539 27.4065 280.478 27.5954 280.478 27.8274C280.478 28.1589 280.599 28.4091 280.841 28.5781C281.083 28.7472 281.391 28.8317 281.765 28.8317Z" fill="#9EABB5"/>
<defs>
<linearGradient id="paint0_linear_15085_10461" x1="21.9527" y1="-3.86769" x2="44.2841" y2="74.2244" gradientUnits="userSpaceOnUse">
<stop stop-color="#FFDF10"/>
<stop offset="0.51" stop-color="#63B87A"/>
<stop offset="1" stop-color="#07467F"/>
</linearGradient>
<linearGradient id="paint1_linear_15085_10461" x1="21.0478" y1="-3.62424" x2="43.3983" y2="74.5319" gradientUnits="userSpaceOnUse">
<stop stop-color="#FFDF10"/>
<stop offset="0.51" stop-color="#63B87A"/>
<stop offset="1" stop-color="#07467F"/>
</linearGradient>
</defs>
</svg>
